<?xml version="1.0" encoding="utf-8"?>
<svg viewBox="0 0 100 40" xmlns="http://www.w3.org/2000/svg">
  <g transform="matrix(0.305299, 0, 0, 0.305299, 3.081434, 8)">
    <path d="M2.08,0H120.8h2.08v2.08v69.2v2.08h-2.08H77.57v4.55h16.61v5.15H28.55v-5.15h16.61v-4.55H2.08H0v-2.08V2.08V0H2.08L2.08,0z M118.73,4.15H4.15v65.05h114.57V4.15L118.73,4.15z" style="stroke: rgb(0, 0, 0); stroke-width: 1.63774px; fill: rgb(255, 255, 255);"/>
  </g>
  <path d="M 13.41 25.233 L 10 25.233 L 10 12.233 L 16.783 12.233 L 16.783 14.767 L 13.41 14.767 L 13.41 16.833 L 16.609 16.833 L 16.609 19.339 L 13.41 19.339 L 13.41 25.233 Z" id="0" vector-effect="non-scaling-stroke" stroke-linecap="round" fill-rule="evenodd" font-size="9pt" style="stroke: rgb(0, 0, 0); fill: rgb(255, 255, 255); stroke-width: 0.5px;"/>
  <path d="M 23.849 25.233 L 20.458 25.233 L 20.458 14.73 L 18.443 14.73 L 18.443 12.233 L 25.863 12.233 L 25.863 14.73 L 23.849 14.73 L 23.849 25.233 Z" id="1" vector-effect="non-scaling-stroke" stroke-linecap="round" fill-rule="evenodd" font-size="9pt" style="stroke: rgb(0, 0, 0); fill: rgb(255, 255, 255); stroke-width: 0.5px;"/>
  <path d="M 29.391 25.233 L 26.095 25.233 L 27.734 12.233 L 33.486 12.233 L 35.095 25.233 L 31.886 25.233 L 31.645 23.136 L 29.603 23.136 L 29.391 25.233 Z M 30.489 14.448 L 29.844 21.06 L 31.386 21.06 L 30.643 14.448 L 30.489 14.448 Z" id="2" vector-effect="non-scaling-stroke" stroke-linecap="round" fill-rule="evenodd" font-size="9pt" style="stroke: rgb(0, 0, 0); fill: rgb(255, 255, 255); stroke-width: 0.5px;"/>
  <path d="M 42.624 23.79 L 42.624 15.356 C 42.622 14.842 42.645 14.329 42.694 13.821 C 42.801 12.78 43.018 11.932 43.355 11.284 C 43.653 10.717 44.071 10.303 44.546 10.106 C 44.892 9.949 45.287 9.871 45.733 9.871 C 46.028 9.871 46.323 9.911 46.611 10 C 46.86 10.075 47.105 10.192 47.336 10.349 C 47.804 10.668 48.173 11.145 48.443 11.778 C 48.587 12.121 48.692 12.498 48.752 12.889 C 48.8 13.206 48.834 13.547 48.841 13.914 C 48.844 14 48.845 14.086 48.845 14.172 L 48.845 17.331 L 46.327 17.331 L 46.327 14.63 C 46.327 14.082 46.277 13.713 46.183 13.522 C 46.114 13.389 46.013 13.296 45.9 13.263 C 45.846 13.245 45.79 13.236 45.733 13.238 C 45.675 13.236 45.615 13.245 45.558 13.265 C 45.429 13.305 45.318 13.43 45.26 13.605 C 45.226 13.71 45.199 13.819 45.183 13.931 C 45.153 14.121 45.137 14.338 45.137 14.586 L 45.137 23.74 C 45.137 24.139 45.169 24.447 45.236 24.661 C 45.25 24.711 45.27 24.762 45.292 24.81 C 45.377 24.984 45.508 25.097 45.656 25.113 C 45.682 25.119 45.708 25.121 45.733 25.121 C 45.951 25.121 46.103 24.993 46.191 24.735 C 46.232 24.621 46.263 24.497 46.281 24.371 C 46.309 24.186 46.327 23.975 46.327 23.74 L 46.327 20.445 L 48.875 20.445 L 48.875 23.905 C 48.875 24.889 48.769 25.709 48.558 26.359 C 48.435 26.757 48.255 27.109 48.033 27.401 C 47.718 27.796 47.348 28.085 46.946 28.247 C 46.574 28.405 46.15 28.485 45.677 28.485 C 45.342 28.49 45.008 28.427 44.685 28.297 C 44.22 28.108 43.799 27.748 43.464 27.249 C 43.123 26.741 42.882 26.117 42.762 25.434 C 42.669 24.94 42.624 24.393 42.624 23.79 Z" id="4" vector-effect="non-scaling-stroke" stroke-linecap="round" fill-rule="evenodd" font-size="9pt" style="stroke: rgb(0, 0, 0); transform-origin: 70.141px 19.178px; fill: rgb(255, 255, 255); stroke-width: 0.5px;"/>
  <path d="M 52.237 28.319 L 49.716 28.319 L 49.716 10.038 L 52.237 10.038 L 52.237 16.571 L 53.434 16.571 L 53.434 10.038 L 55.953 10.038 L 55.953 28.319 L 53.434 28.319 L 53.434 20.031 L 52.237 20.031 L 52.237 28.319 Z" id="5" vector-effect="non-scaling-stroke" stroke-linecap="round" fill-rule="evenodd" font-size="9pt" style="stroke: rgb(0, 0, 0); transform-origin: 70.141px 19.178px; fill: rgb(255, 255, 255); stroke-width: 0.5px;"/>
  <path d="M 59.195 28.319 L 56.732 28.319 L 57.954 10.038 L 62.254 10.038 L 63.458 28.319 L 61.059 28.319 L 60.879 25.369 L 59.352 25.369 L 59.195 28.319 Z M 60.015 13.154 L 59.533 22.45 L 60.685 22.45 L 60.131 13.154 L 60.015 13.154 Z" id="6" vector-effect="non-scaling-stroke" stroke-linecap="round" fill-rule="evenodd" font-size="9pt" style="stroke: rgb(0, 0, 0); transform-origin: 70.141px 19.178px; fill: rgb(255, 255, 255); stroke-width: 0.5px;"/>
  <path d="M 66.711 28.319 L 64.235 28.319 L 64.235 10.038 L 66.842 10.038 L 68.007 18.794 L 68.007 10.038 L 70.456 10.038 L 70.456 28.319 L 67.979 28.319 L 66.711 19.18 L 66.711 28.319 Z" id="7" vector-effect="non-scaling-stroke" stroke-linecap="round" fill-rule="evenodd" font-size="9pt" style="stroke: rgb(0, 0, 0); transform-origin: 70.141px 19.178px; fill: rgb(255, 255, 255); stroke-width: 0.5px;"/>
  <path d="M 74.056 28.319 L 71.581 28.319 L 71.581 10.038 L 74.186 10.038 L 75.353 18.794 L 75.353 10.038 L 77.801 10.038 L 77.801 28.319 L 75.326 28.319 L 74.056 19.18 L 74.056 28.319 Z" id="8" vector-effect="non-scaling-stroke" stroke-linecap="round" fill-rule="evenodd" font-size="9pt" style="stroke: rgb(0, 0, 0); transform-origin: 70.141px 19.178px; fill: rgb(255, 255, 255); stroke-width: 0.5px;"/>
  <path d="M 84.161 28.319 L 78.925 28.319 L 78.925 10.038 L 83.994 10.038 L 83.994 13.569 L 81.504 13.569 L 81.504 17.133 L 83.894 17.133 L 83.894 20.571 L 81.504 20.571 L 81.504 24.757 L 84.161 24.757 L 84.161 28.319 Z" id="9" vector-effect="non-scaling-stroke" stroke-linecap="round" fill-rule="evenodd" font-size="9pt" style="stroke: rgb(0, 0, 0); transform-origin: 70.141px 19.178px; fill: rgb(255, 255, 255); stroke-width: 0.5px;"/>
  <path d="M 90.135 28.319 L 84.996 28.319 L 84.996 10.038 L 87.531 10.038 L 87.531 25.205 L 90.135 25.205 L 90.135 28.319 Z" id="10" vector-effect="non-scaling-stroke" stroke-linecap="round" fill-rule="evenodd" font-size="9pt" style="stroke: rgb(0, 0, 0); transform-origin: 70.141px 19.178px; fill: rgb(255, 255, 255); stroke-width: 0.5px;"/>
  <path d="M 90.598 23.271 L 90.598 21.486 L 93.104 21.486 L 93.104 23.771 C 93.103 23.892 93.108 24.018 93.118 24.139 C 93.136 24.389 93.177 24.599 93.238 24.762 C 93.302 24.942 93.423 25.068 93.562 25.101 C 93.608 25.113 93.654 25.121 93.703 25.121 C 93.76 25.121 93.815 25.113 93.87 25.099 C 94.012 25.061 94.116 24.971 94.181 24.829 C 94.21 24.761 94.236 24.689 94.25 24.612 C 94.285 24.465 94.304 24.285 94.311 24.069 C 94.312 24.005 94.312 23.939 94.312 23.875 C 94.312 23.677 94.308 23.478 94.299 23.282 C 94.287 23.089 94.271 22.913 94.248 22.75 C 94.235 22.653 94.218 22.559 94.198 22.466 C 94.138 22.175 94.049 21.9 93.931 21.647 C 93.89 21.557 93.844 21.47 93.799 21.387 C 93.61 21.043 93.346 20.645 93.011 20.187 L 91.873 18.628 C 91.023 17.472 90.598 16.15 90.598 14.66 C 90.596 14.207 90.62 13.755 90.67 13.308 C 90.729 12.824 90.82 12.388 90.945 12.002 C 91.048 11.674 91.185 11.368 91.35 11.098 C 91.688 10.556 92.133 10.178 92.623 10.019 C 92.889 9.924 93.182 9.875 93.498 9.871 C 93.51 9.871 93.518 9.871 93.529 9.871 C 93.829 9.868 94.127 9.904 94.423 9.976 C 94.742 10.057 95.023 10.187 95.27 10.363 C 95.556 10.564 95.805 10.853 96.004 11.212 C 96.49 12.106 96.733 13.463 96.733 15.284 L 94.156 15.284 L 94.156 14.026 C 94.156 13.779 94.108 13.584 94.007 13.445 C 93.941 13.352 93.855 13.286 93.762 13.259 C 93.712 13.245 93.661 13.236 93.608 13.238 C 93.408 13.238 93.26 13.319 93.166 13.482 C 93.103 13.591 93.061 13.722 93.041 13.863 C 93.031 13.944 93.025 14.026 93.025 14.109 C 93.025 14.365 93.072 14.642 93.17 14.941 C 93.265 15.239 93.455 15.581 93.736 15.97 L 95.201 17.994 C 95.489 18.39 95.759 18.815 96.007 19.267 C 96.252 19.715 96.449 20.233 96.597 20.825 C 96.722 21.325 96.796 21.913 96.816 22.596 C 96.817 22.728 96.82 22.859 96.82 22.99 C 96.822 23.493 96.8 23.993 96.756 24.492 C 96.708 25.018 96.632 25.497 96.528 25.931 C 96.436 26.317 96.312 26.684 96.162 27.026 C 95.887 27.626 95.475 28.065 94.995 28.263 C 94.669 28.411 94.293 28.485 93.868 28.485 C 93.567 28.489 93.265 28.457 92.969 28.387 C 92.651 28.31 92.366 28.192 92.117 28.025 C 91.83 27.845 91.574 27.576 91.366 27.239 C 91.154 26.887 90.99 26.482 90.883 26.041 C 90.705 25.346 90.609 24.492 90.599 23.476 C 90.598 23.408 90.598 23.34 90.598 23.271 Z" id="11" vector-effect="non-scaling-stroke" stroke-linecap="round" fill-rule="evenodd" font-size="9pt" style="stroke: rgb(0, 0, 0); transform-origin: 70.141px 19.178px; fill: rgb(255, 255, 255); stroke-width: 0.5px;"/>
</svg>